<svg id="visual" viewBox="0 0 960 540" width="960" height="540" xmlns="http://www.w3.org/2000/svg" xmlns:xlink="http://www.w3.org/1999/xlink" version="1.1"><rect x="0" y="0" width="960" height="540" fill="#fff8dc"></rect><defs><linearGradient id="grad1_0" x1="43.8%" y1="100%" x2="100%" y2="0%"><stop offset="14.444444444444446%" stop-color="#ff6d60" stop-opacity="1"></stop><stop offset="85.55555555555554%" stop-color="#ff6d60" stop-opacity="1"></stop></linearGradient></defs><defs><linearGradient id="grad1_1" x1="43.8%" y1="100%" x2="100%" y2="0%"><stop offset="14.444444444444446%" stop-color="#ff6d60" stop-opacity="1"></stop><stop offset="85.55555555555554%" stop-color="#ff8664" stop-opacity="1"></stop></linearGradient></defs><defs><linearGradient id="grad1_2" x1="43.8%" y1="100%" x2="100%" y2="0%"><stop offset="14.444444444444446%" stop-color="#fd9d6e" stop-opacity="1"></stop><stop offset="85.55555555555554%" stop-color="#ff8664" stop-opacity="1"></stop></linearGradient></defs><defs><linearGradient id="grad1_3" x1="43.8%" y1="100%" x2="100%" y2="0%"><stop offset="14.444444444444446%" stop-color="#fd9d6e" stop-opacity="1"></stop><stop offset="85.55555555555554%" stop-color="#fcb27c" stop-opacity="1"></stop></linearGradient></defs><defs><linearGradient id="grad1_4" x1="43.8%" y1="100%" x2="100%" y2="0%"><stop offset="14.444444444444446%" stop-color="#fac690" stop-opacity="1"></stop><stop offset="85.55555555555554%" stop-color="#fcb27c" stop-opacity="1"></stop></linearGradient></defs><defs><linearGradient id="grad1_5" x1="43.8%" y1="100%" x2="100%" y2="0%"><stop offset="14.444444444444446%" stop-color="#fac690" stop-opacity="1"></stop><stop offset="85.55555555555554%" stop-color="#fad8a7" stop-opacity="1"></stop></linearGradient></defs><defs><linearGradient id="grad1_6" x1="43.8%" y1="100%" x2="100%" y2="0%"><stop offset="14.444444444444446%" stop-color="#fbe8c1" stop-opacity="1"></stop><stop offset="85.55555555555554%" stop-color="#fad8a7" stop-opacity="1"></stop></linearGradient></defs><defs><linearGradient id="grad1_7" x1="43.8%" y1="100%" x2="100%" y2="0%"><stop offset="14.444444444444446%" stop-color="#fbe8c1" stop-opacity="1"></stop><stop offset="85.55555555555554%" stop-color="#fff8dc" stop-opacity="1"></stop></linearGradient></defs><defs><linearGradient id="grad2_0" x1="0%" y1="100%" x2="56.3%" y2="0%"><stop offset="14.444444444444446%" stop-color="#ff6d60" stop-opacity="1"></stop><stop offset="85.55555555555554%" stop-color="#ff6d60" stop-opacity="1"></stop></linearGradient></defs><defs><linearGradient id="grad2_1" x1="0%" y1="100%" x2="56.3%" y2="0%"><stop offset="14.444444444444446%" stop-color="#ff8664" stop-opacity="1"></stop><stop offset="85.55555555555554%" stop-color="#ff6d60" stop-opacity="1"></stop></linearGradient></defs><defs><linearGradient id="grad2_2" x1="0%" y1="100%" x2="56.3%" y2="0%"><stop offset="14.444444444444446%" stop-color="#ff8664" stop-opacity="1"></stop><stop offset="85.55555555555554%" stop-color="#fd9d6e" stop-opacity="1"></stop></linearGradient></defs><defs><linearGradient id="grad2_3" x1="0%" y1="100%" x2="56.3%" y2="0%"><stop offset="14.444444444444446%" stop-color="#fcb27c" stop-opacity="1"></stop><stop offset="85.55555555555554%" stop-color="#fd9d6e" stop-opacity="1"></stop></linearGradient></defs><defs><linearGradient id="grad2_4" x1="0%" y1="100%" x2="56.3%" y2="0%"><stop offset="14.444444444444446%" stop-color="#fcb27c" stop-opacity="1"></stop><stop offset="85.55555555555554%" stop-color="#fac690" stop-opacity="1"></stop></linearGradient></defs><defs><linearGradient id="grad2_5" x1="0%" y1="100%" x2="56.3%" y2="0%"><stop offset="14.444444444444446%" stop-color="#fad8a7" stop-opacity="1"></stop><stop offset="85.55555555555554%" stop-color="#fac690" stop-opacity="1"></stop></linearGradient></defs><defs><linearGradient id="grad2_6" x1="0%" y1="100%" x2="56.3%" y2="0%"><stop offset="14.444444444444446%" stop-color="#fad8a7" stop-opacity="1"></stop><stop offset="85.55555555555554%" stop-color="#fbe8c1" stop-opacity="1"></stop></linearGradient></defs><defs><linearGradient id="grad2_7" x1="0%" y1="100%" x2="56.3%" y2="0%"><stop offset="14.444444444444446%" stop-color="#fff8dc" stop-opacity="1"></stop><stop offset="85.55555555555554%" stop-color="#fbe8c1" stop-opacity="1"></stop></linearGradient></defs><g transform="translate(960, 540)"><path d="M-351 0C-349.5 -27.2 -348.1 -54.3 -337.3 -77C-326.6 -99.7 -306.5 -117.9 -297.3 -143.2C-288.2 -168.5 -290 -201 -274.4 -218.8C-258.9 -236.7 -225.9 -240.1 -203.3 -254.9C-180.6 -269.7 -168.2 -296 -147.5 -306.3C-126.9 -316.7 -98.1 -311.1 -72.1 -315.9C-46.1 -320.7 -23.1 -335.8 0 -351L0 0Z" fill="#fdf0ce"></path><path d="M-307.1 0C-305.9 -23.8 -304.6 -47.5 -295.2 -67.4C-285.7 -87.2 -268.2 -103.1 -260.2 -125.3C-252.2 -147.4 -253.7 -175.8 -240.1 -191.5C-226.5 -207.1 -197.7 -210.1 -177.9 -223C-158 -236 -147.1 -259 -129.1 -268C-111 -277.1 -85.8 -272.2 -63.1 -276.4C-40.4 -280.6 -20.2 -293.9 0 -307.1L0 0Z" fill="#fae0b3"></path><path d="M-263.2 0C-262.2 -20.4 -261.1 -40.7 -253 -57.7C-244.9 -74.8 -229.8 -88.4 -223 -107.4C-216.1 -126.4 -217.5 -150.7 -205.8 -164.1C-194.1 -177.6 -169.5 -180 -152.4 -191.2C-135.4 -202.3 -126.1 -222 -110.6 -229.7C-95.2 -237.5 -73.5 -233.3 -54.1 -236.9C-34.6 -240.5 -17.3 -251.9 0 -263.2L0 0Z" fill="#facf9b"></path><path d="M-219.4 0C-218.5 -17 -217.6 -33.9 -210.8 -48.1C-204.1 -62.3 -191.5 -73.7 -185.8 -89.5C-180.1 -105.3 -181.2 -125.6 -171.5 -136.8C-161.8 -148 -141.2 -150 -127 -159.3C-112.9 -168.6 -105.1 -185 -92.2 -191.5C-79.3 -197.9 -61.3 -194.4 -45.1 -197.4C-28.8 -200.4 -14.4 -209.9 0 -219.4L0 0Z" fill="#fbbc86"></path><path d="M-175.5 0C-174.8 -13.6 -174 -27.2 -168.7 -38.5C-163.3 -49.8 -153.2 -58.9 -148.7 -71.6C-144.1 -84.3 -145 -100.5 -137.2 -109.4C-129.4 -118.4 -113 -120 -101.6 -127.4C-90.3 -134.8 -84.1 -148 -73.8 -153.2C-63.4 -158.3 -49 -155.5 -36 -157.9C-23.1 -160.3 -11.5 -167.9 0 -175.5L0 0Z" fill="#fda874"></path><path d="M-131.6 0C-131.1 -10.2 -130.5 -20.4 -126.5 -28.9C-122.5 -37.4 -114.9 -44.2 -111.5 -53.7C-108.1 -63.2 -108.7 -75.4 -102.9 -82.1C-97.1 -88.8 -84.7 -90 -76.2 -95.6C-67.7 -101.1 -63.1 -111 -55.3 -114.9C-47.6 -118.8 -36.8 -116.7 -27 -118.5C-17.3 -120.2 -8.7 -125.9 0 -131.6L0 0Z" fill="#fe9268"></path><path d="M-87.7 0C-87.4 -6.8 -87 -13.6 -84.3 -19.2C-81.6 -24.9 -76.6 -29.5 -74.3 -35.8C-72 -42.1 -72.5 -50.2 -68.6 -54.7C-64.7 -59.2 -56.5 -60 -50.8 -63.7C-45.1 -67.4 -42 -74 -36.9 -76.6C-31.7 -79.2 -24.5 -77.8 -18 -79C-11.5 -80.2 -5.8 -84 0 -87.7L0 0Z" fill="#ff7a61"></path><path d="M-43.9 0C-43.7 -3.4 -43.5 -6.8 -42.2 -9.6C-40.8 -12.5 -38.3 -14.7 -37.2 -17.9C-36 -21.1 -36.2 -25.1 -34.3 -27.4C-32.4 -29.6 -28.2 -30 -25.4 -31.9C-22.6 -33.7 -21 -37 -18.4 -38.3C-15.9 -39.6 -12.3 -38.9 -9 -39.5C-5.8 -40.1 -2.9 -42 0 -43.9L0 0Z" fill="#ff6d60"></path></g><g transform="translate(0, 0)"><path d="M351 0C339.1 23.5 327.2 47 324.7 74.1C322.1 101.2 329 131.8 316.2 152.3C303.5 172.8 271.2 183.2 251 200.1C230.8 217.1 222.7 240.7 208.2 261.1C193.8 281.6 172.9 299 150.1 311.7C127.3 324.5 102.6 332.5 77.2 338.3C51.9 344.1 25.9 347.5 0 351L0 0Z" fill="#fdf0ce"></path><path d="M307.1 0C296.7 20.6 286.3 41.2 284.1 64.8C281.9 88.5 287.9 115.3 276.7 133.3C265.6 151.2 237.3 160.3 219.6 175.1C201.9 190 194.9 210.6 182.2 228.5C169.6 246.4 151.3 261.6 131.4 272.8C111.4 283.9 89.7 291 67.6 296C45.4 301.1 22.7 304.1 0 307.1L0 0Z" fill="#fae0b3"></path><path d="M263.3 0C254.3 17.6 245.4 35.3 243.5 55.6C241.6 75.9 246.7 98.8 237.2 114.2C227.6 129.6 203.4 137.4 188.2 150.1C173.1 162.8 167 180.5 156.2 195.8C145.3 211.2 129.7 224.3 112.6 233.8C95.5 243.4 76.9 249.4 57.9 253.7C38.9 258 19.5 260.6 0 263.3L0 0Z" fill="#facf9b"></path><path d="M219.4 0C211.9 14.7 204.5 29.4 202.9 46.3C201.3 63.2 205.6 82.4 197.7 95.2C189.7 108 169.5 114.5 156.9 125.1C144.2 135.7 139.2 150.4 130.2 163.2C121.1 176 108.1 186.9 93.8 194.8C79.6 202.8 64.1 207.8 48.3 211.4C32.4 215 16.2 217.2 0 219.4L0 0Z" fill="#fbbc86"></path><path d="M175.5 0C169.5 11.8 163.6 23.5 162.3 37C161.1 50.6 164.5 65.9 158.1 76.1C151.8 86.4 135.6 91.6 125.5 100.1C115.4 108.6 111.4 120.3 104.1 130.6C96.9 140.8 86.5 149.5 75.1 155.9C63.7 162.2 51.3 166.3 38.6 169.1C25.9 172 13 173.8 0 175.5L0 0Z" fill="#fda874"></path><path d="M131.6 0C127.2 8.8 122.7 17.6 121.7 27.8C120.8 37.9 123.4 49.4 118.6 57.1C113.8 64.8 101.7 68.7 94.1 75.1C86.5 81.4 83.5 90.2 78.1 97.9C72.7 105.6 64.8 112.1 56.3 116.9C47.7 121.7 38.5 124.7 29 126.9C19.5 129 9.7 130.3 0 131.6L0 0Z" fill="#fe9268"></path><path d="M87.8 0C84.8 5.9 81.8 11.8 81.2 18.5C80.5 25.3 82.2 32.9 79.1 38.1C75.9 43.2 67.8 45.8 62.7 50C57.7 54.3 55.7 60.2 52.1 65.3C48.4 70.4 43.2 74.8 37.5 77.9C31.8 81.1 25.6 83.1 19.3 84.6C13 86 6.5 86.9 0 87.8L0 0Z" fill="#ff7a61"></path><path d="M43.9 0C42.4 2.9 40.9 5.9 40.6 9.3C40.3 12.6 41.1 16.5 39.5 19C37.9 21.6 33.9 22.9 31.4 25C28.8 27.1 27.8 30.1 26 32.6C24.2 35.2 21.6 37.4 18.8 39C15.9 40.6 12.8 41.6 9.7 42.3C6.5 43 3.2 43.4 0 43.9L0 0Z" fill="#ff6d60"></path></g></svg>