<svg id="visual" viewBox="0 0 900 450" width="900" height="450" xmlns="http://www.w3.org/2000/svg" xmlns:xlink="http://www.w3.org/1999/xlink" version="1.1">
  <rect x="0" y="0" width="900" height="450" fill="#fff8dc"></rect>
  <defs>
    <linearGradient id="grad1_0" x1="50%" y1="0%" x2="100%" y2="100%">
      <stop offset="10%" stop-color="#ff6d60" stop-opacity="1"></stop>
      <stop offset="90%" stop-color="#ff6d60" stop-opacity="1"></stop>
    </linearGradient>
  </defs>
  <defs>
    <linearGradient id="grad1_1" x1="50%" y1="0%" x2="100%" y2="100%">
      <stop offset="10%" stop-color="#ff6d60" stop-opacity="1"></stop>
      <stop offset="90%" stop-color="#ff8664" stop-opacity="1"></stop>
    </linearGradient>
  </defs>
  <defs>
    <linearGradient id="grad1_2" x1="50%" y1="0%" x2="100%" y2="100%">
      <stop offset="10%" stop-color="#fd9d6e" stop-opacity="1"></stop>
      <stop offset="90%" stop-color="#ff8664" stop-opacity="1"></stop>
    </linearGradient>
  </defs>
  <defs>
    <linearGradient id="grad1_3" x1="50%" y1="0%" x2="100%" y2="100%">
      <stop offset="10%" stop-color="#fd9d6e" stop-opacity="1"></stop>
      <stop offset="90%" stop-color="#fcb27c" stop-opacity="1"></stop>
    </linearGradient>
  </defs>
  <defs>
    <linearGradient id="grad1_4" x1="50%" y1="0%" x2="100%" y2="100%">
      <stop offset="10%" stop-color="#fac690" stop-opacity="1"></stop>
      <stop offset="90%" stop-color="#fcb27c" stop-opacity="1"></stop>
    </linearGradient>
  </defs>
  <defs>
    <linearGradient id="grad1_5" x1="50%" y1="0%" x2="100%" y2="100%">
      <stop offset="10%" stop-color="#fac690" stop-opacity="1"></stop>
      <stop offset="90%" stop-color="#fad8a7" stop-opacity="1"></stop>
    </linearGradient>
  </defs>
  <defs>
    <linearGradient id="grad1_6" x1="50%" y1="0%" x2="100%" y2="100%">
      <stop offset="10%" stop-color="#fbe8c1" stop-opacity="1"></stop>
      <stop offset="90%" stop-color="#fad8a7" stop-opacity="1"></stop>
    </linearGradient>
  </defs>
  <defs>
    <linearGradient id="grad1_7" x1="50%" y1="0%" x2="100%" y2="100%">
      <stop offset="10%" stop-color="#fbe8c1" stop-opacity="1"></stop>
      <stop offset="90%" stop-color="#fff8dc" stop-opacity="1"></stop>
    </linearGradient>
  </defs>
  <defs>
    <linearGradient id="grad2_0" x1="0%" y1="0%" x2="50%" y2="100%">
      <stop offset="10%" stop-color="#ff6d60" stop-opacity="1"></stop>
      <stop offset="90%" stop-color="#ff6d60" stop-opacity="1"></stop>
    </linearGradient>
  </defs>
  <defs>
    <linearGradient id="grad2_1" x1="0%" y1="0%" x2="50%" y2="100%">
      <stop offset="10%" stop-color="#ff8664" stop-opacity="1"></stop>
      <stop offset="90%" stop-color="#ff6d60" stop-opacity="1"></stop>
    </linearGradient>
  </defs>
  <defs>
    <linearGradient id="grad2_2" x1="0%" y1="0%" x2="50%" y2="100%">
      <stop offset="10%" stop-color="#ff8664" stop-opacity="1"></stop>
      <stop offset="90%" stop-color="#fd9d6e" stop-opacity="1"></stop>
    </linearGradient>
  </defs>
  <defs>
    <linearGradient id="grad2_3" x1="0%" y1="0%" x2="50%" y2="100%">
      <stop offset="10%" stop-color="#fcb27c" stop-opacity="1"></stop>
      <stop offset="90%" stop-color="#fd9d6e" stop-opacity="1"></stop>
    </linearGradient>
  </defs>
  <defs>
    <linearGradient id="grad2_4" x1="0%" y1="0%" x2="50%" y2="100%">
      <stop offset="10%" stop-color="#fcb27c" stop-opacity="1"></stop>
      <stop offset="90%" stop-color="#fac690" stop-opacity="1"></stop>
    </linearGradient>
  </defs>
  <defs>
    <linearGradient id="grad2_5" x1="0%" y1="0%" x2="50%" y2="100%">
      <stop offset="10%" stop-color="#fad8a7" stop-opacity="1"></stop>
      <stop offset="90%" stop-color="#fac690" stop-opacity="1"></stop>
    </linearGradient>
  </defs>
  <defs>
    <linearGradient id="grad2_6" x1="0%" y1="0%" x2="50%" y2="100%">
      <stop offset="10%" stop-color="#fad8a7" stop-opacity="1"></stop>
      <stop offset="90%" stop-color="#fbe8c1" stop-opacity="1"></stop>
    </linearGradient>
  </defs>
  <defs>
    <linearGradient id="grad2_7" x1="0%" y1="0%" x2="50%" y2="100%">
      <stop offset="10%" stop-color="#fff8dc" stop-opacity="1"></stop>
      <stop offset="90%" stop-color="#fbe8c1" stop-opacity="1"></stop>
    </linearGradient>
  </defs>
  <g transform="translate(900, 0)">
    <path d="M0 427.5C-22.3 409.3 -44.7 391.1 -67.9 385.1C-91.1 379 -115.2 385.1 -140.6 386.2C-166 387.4 -192.8 383.6 -213.7 370.2C-234.7 356.9 -249.9 333.9 -260.3 310.2C-270.8 286.6 -276.4 262.4 -294.2 246.8C-311.9 231.3 -341.7 224.5 -362 209C-382.3 193.5 -393.1 169.2 -397.5 144.7C-401.9 120.1 -399.8 95.4 -403.8 71.2C-407.7 47 -417.6 23.5 -427.5 0L0 0Z" fill="#fdf0ce"></path>
    <path d="M0 374.1C-19.6 358.1 -39.1 342.2 -59.4 336.9C-79.7 331.6 -100.8 336.9 -123 337.9C-145.2 338.9 -168.7 335.6 -187 323.9C-205.4 312.2 -218.7 292.1 -227.8 271.5C-236.9 250.8 -241.9 229.6 -257.4 216C-272.9 202.4 -299 196.5 -316.7 182.9C-334.5 169.3 -344 148.1 -347.8 126.6C-351.6 105.1 -349.9 83.4 -353.3 62.3C-356.7 41.2 -365.4 20.6 -374.1 0L0 0Z" fill="#fae0b3"></path>
    <path d="M0 320.6C-16.8 307 -33.5 293.3 -50.9 288.8C-68.3 284.2 -86.4 288.8 -105.4 289.7C-124.5 290.5 -144.6 287.7 -160.3 277.7C-176 267.6 -187.4 250.4 -195.2 232.7C-203.1 215 -207.3 196.8 -220.6 185.1C-233.9 173.5 -256.3 168.4 -271.5 156.8C-286.7 145.1 -294.8 126.9 -298.1 108.5C-301.4 90.1 -299.9 71.5 -302.8 53.4C-305.8 35.3 -313.2 17.6 -320.6 0L0 0Z" fill="#facf9b"></path>
    <path d="M0 267.2C-14 255.8 -27.9 244.5 -42.4 240.7C-56.9 236.9 -72 240.7 -87.9 241.4C-103.7 242.1 -120.5 239.7 -133.6 231.4C-146.7 223 -156.2 208.7 -162.7 193.9C-169.2 179.1 -172.8 164 -183.9 154.3C-194.9 144.6 -213.6 140.3 -226.2 130.6C-238.9 120.9 -245.7 105.8 -248.4 90.4C-251.2 75.1 -249.9 59.6 -252.4 44.5C-254.8 29.4 -261 14.7 -267.2 0L0 0Z" fill="#fbbc86"></path>
    <path d="M0 213.8C-11.2 204.7 -22.3 195.6 -33.9 192.5C-45.5 189.5 -57.6 192.5 -70.3 193.1C-83 193.7 -96.4 191.8 -106.9 185.1C-117.4 178.4 -125 166.9 -130.2 155.1C-135.4 143.3 -138.2 131.2 -147.1 123.4C-155.9 115.7 -170.8 112.3 -181 104.5C-191.2 96.7 -196.6 84.6 -198.7 72.3C-200.9 60.1 -199.9 47.7 -201.9 35.6C-203.9 23.5 -208.8 11.8 -213.7 0L0 0Z" fill="#fda874"></path>
    <path d="M0 160.3C-8.4 153.5 -16.8 146.7 -25.5 144.4C-34.2 142.1 -43.2 144.4 -52.7 144.8C-62.2 145.3 -72.3 143.8 -80.2 138.8C-88 133.8 -93.7 125.2 -97.6 116.3C-101.5 107.5 -103.7 98.4 -110.3 92.6C-117 86.7 -128.1 84.2 -135.7 78.4C-143.4 72.6 -147.4 63.5 -149.1 54.3C-150.7 45.1 -149.9 35.8 -151.4 26.7C-152.9 17.6 -156.6 8.8 -160.3 0L0 0Z" fill="#fe9268"></path>
    <path d="M0 106.9C-5.6 102.3 -11.2 97.8 -17 96.3C-22.8 94.7 -28.8 96.3 -35.1 96.6C-41.5 96.8 -48.2 95.9 -53.4 92.6C-58.7 89.2 -62.5 83.5 -65.1 77.6C-67.7 71.7 -69.1 65.6 -73.5 61.7C-78 57.8 -85.4 56.1 -90.5 52.3C-95.6 48.4 -98.3 42.3 -99.4 36.2C-100.5 30 -100 23.8 -100.9 17.8C-101.9 11.8 -104.4 5.9 -106.9 0L0 0Z" fill="#ff7a61"></path>
    <path d="M0 53.4C-2.8 51.2 -5.6 48.9 -8.5 48.1C-11.4 47.4 -14.4 48.1 -17.6 48.3C-20.7 48.4 -24.1 47.9 -26.7 46.3C-29.3 44.6 -31.2 41.7 -32.5 38.8C-33.8 35.8 -34.6 32.8 -36.8 30.9C-39 28.9 -42.7 28.1 -45.2 26.1C-47.8 24.2 -49.1 21.2 -49.7 18.1C-50.2 15 -50 11.9 -50.5 8.9C-51 5.9 -52.2 2.9 -53.4 0L0 0Z" fill="#ff6d60"></path>
  </g>
</svg>