<svg id="visual" viewBox="0 0 900 600" width="900" height="600" xmlns="http://www.w3.org/2000/svg" xmlns:xlink="http://www.w3.org/1999/xlink" version="1.1">
<rect x="0" y="0" width="900" height="600" fill="#fff8dc"></rect><g fill="none" stroke="#ff8664" stroke-width="4">
<path d="M0 -86.8L19.5 -26.8L82.6 -26.8L31.5 10.2L51 70.2L0 33.2L-51 70.2L-31.5 10.2L-82.6 -26.8L-19.5 -26.8Z" transform="translate(296 217)"></path>
<path d="M0 -49.1L11 -15.2L46.7 -15.2L17.8 5.8L28.8 39.7L0 18.7L-28.8 39.7L-17.8 5.8L-46.7 -15.2L-11 -15.2Z" transform="translate(496 82)"></path>
<path d="M0 -77.4L17.4 -23.9L73.6 -23.9L28.1 9.1L45.5 62.6L0 29.6L-45.5 62.6L-28.1 9.1L-73.6 -23.9L-17.4 -23.9Z" transform="translate(461 458)"></path>
<path d="M0 -54.7L12.3 -16.9L52.1 -16.9L19.9 6.5L32.2 44.3L0 20.9L-32.2 44.3L-19.9 6.5L-52.1 -16.9L-12.3 -16.9Z" transform="translate(179 377)"></path>
<path d="M0 -71.7L16.1 -22.2L68.2 -22.2L26.1 8.5L42.2 58L0 27.4L-42.2 58L-26.1 8.5L-68.2 -22.2L-16.1 -22.2Z" transform="translate(887 584)"></path>
<path d="M0 -53.8L12.1 -16.6L51.2 -16.6L19.5 6.4L31.6 43.5L0 20.5L-31.6 43.5L-19.5 6.4L-51.2 -16.6L-12.1 -16.6Z" transform="translate(749 35)"></path>
<path d="M0 -73.6L16.5 -22.7L70 -22.7L26.7 8.7L43.3 59.6L0 28.1L-43.3 59.6L-26.7 8.7L-70 -22.7L-16.5 -22.7Z" transform="translate(770 235)"></path>
<path d="M0 -50L11.2 -15.5L47.6 -15.5L18.2 5.9L29.4 40.5L0 19.1L-29.4 40.5L-18.2 5.9L-47.6 -15.5L-11.2 -15.5Z" transform="translate(558 282)"></path>
</g>
</svg>